<?xml version="1.0" encoding="utf-8"?>
<!-- Generator: Adobe Illustrator 24.0.3, SVG Export Plug-In . SVG Version: 6.00 Build 0)  -->
<svg version="1.1" id="Layer_1" xmlns="http://www.w3.org/2000/svg" xmlns:xlink="http://www.w3.org/1999/xlink" x="0px" y="0px"
	 viewBox="0 0 365.5 130" style="enable-background:new 0 0 365.5 130;" xml:space="preserve">
<style type="text/css">
	.st0{fill:none;}
	.st1{fill:#ED2024;}
	.st2{font-family:'Futura-Bold';}
	.st3{font-size:53.8583px;}
	.st4{fill:none;stroke:#ED2024;stroke-miterlimit:10;}
</style>
<rect x="154.1" y="39.7" class="st0" width="99" height="60"/>
<text transform="matrix(1 0 0 1 154.1318 84.354)" class="st1 st2 st3">X</text>
<g>
	<path d="M220.1,26.1c0,2-0.4,3.5-1.2,4.5s-2,1.6-3.4,1.6c-1.2,0-2.2-0.5-2.9-1.5l-0.2,1.2H209V15h3.7v6c0.7-0.8,1.6-1.2,2.7-1.2
		c1.5,0,2.6,0.5,3.5,1.6s1.2,2.6,1.2,4.5V26.1z M216.4,25.9c0-1.2-0.2-2-0.5-2.5c-0.3-0.5-0.8-0.7-1.4-0.7c-0.8,0-1.4,0.3-1.8,1v4.8
		c0.3,0.6,0.9,1,1.8,1c0.9,0,1.4-0.4,1.7-1.3C216.3,27.6,216.4,26.9,216.4,25.9z"/>
	<path d="M227.6,32.2c-1.8,0-3.3-0.5-4.5-1.6c-1.1-1.1-1.7-2.5-1.7-4.3V26c0-1.2,0.2-2.3,0.7-3.2s1.1-1.7,2-2.2
		c0.9-0.5,1.9-0.8,3.1-0.8c1.7,0,3,0.5,4,1.6c1,1,1.5,2.5,1.5,4.4v1.5h-7.4c0.1,0.7,0.4,1.2,0.9,1.6c0.5,0.4,1,0.6,1.7,0.6
		c1.2,0,2.1-0.4,2.8-1.2l1.7,2c-0.5,0.6-1.1,1.2-2,1.5C229.5,32,228.6,32.2,227.6,32.2z M227.2,22.7c-1.1,0-1.7,0.7-1.9,2.2h3.8
		v-0.3c0-0.6-0.1-1.1-0.5-1.4C228.2,22.8,227.8,22.7,227.2,22.7z"/>
	<path d="M238.5,17v3h2v2.6h-2v5.5c0,0.5,0.1,0.8,0.2,0.9c0.2,0.2,0.5,0.3,1,0.3c0.4,0,0.7,0,0.9-0.1v2.7c-0.7,0.2-1.4,0.3-2.1,0.3
		c-1.3,0-2.2-0.3-2.8-0.9c-0.6-0.6-0.9-1.5-0.9-2.8v-5.9h-1.5V20h1.5v-3H238.5z"/>
	<path d="M246.3,17v3h2v2.6h-2v5.5c0,0.5,0.1,0.8,0.2,0.9c0.2,0.2,0.5,0.3,1,0.3c0.4,0,0.7,0,0.9-0.1v2.7c-0.7,0.2-1.4,0.3-2.1,0.3
		c-1.3,0-2.2-0.3-2.8-0.9c-0.6-0.6-0.9-1.5-0.9-2.8v-5.9H241V20h1.5v-3H246.3z"/>
	<path d="M255.5,32.2c-1.8,0-3.3-0.5-4.5-1.6c-1.1-1.1-1.7-2.5-1.7-4.3V26c0-1.2,0.2-2.3,0.7-3.2s1.1-1.7,2-2.2
		c0.9-0.5,1.9-0.8,3.1-0.8c1.7,0,3,0.5,4,1.6c1,1,1.5,2.5,1.5,4.4v1.5h-7.4c0.1,0.7,0.4,1.2,0.9,1.6c0.5,0.4,1,0.6,1.7,0.6
		c1.2,0,2.1-0.4,2.8-1.2l1.7,2c-0.5,0.6-1.1,1.2-2,1.5C257.4,32,256.5,32.2,255.5,32.2z M255.1,22.7c-1.1,0-1.7,0.7-1.9,2.2h3.8
		v-0.3c0-0.6-0.1-1.1-0.5-1.4C256.1,22.8,255.7,22.7,255.1,22.7z"/>
	<path d="M269.3,23.4l-1.2-0.1c-1.2,0-1.9,0.4-2.3,1.1V32h-3.7V20h3.5l0.1,1.5c0.6-1.2,1.5-1.8,2.6-1.8c0.4,0,0.7,0,1,0.1
		L269.3,23.4z"/>
	<path d="M287.4,26.1c0,1.9-0.4,3.3-1.3,4.5c-0.8,1.1-2,1.7-3.4,1.7c-1.1,0-2-0.4-2.7-1.2v5.6h-3.7V20h3.5l0.1,1.1
		c0.7-0.9,1.7-1.3,2.8-1.3c1.5,0,2.6,0.5,3.4,1.6c0.8,1.1,1.2,2.6,1.2,4.5V26.1z M283.7,25.9c0-2.1-0.6-3.2-1.9-3.2
		c-0.9,0-1.5,0.3-1.8,1v4.7c0.3,0.7,0.9,1,1.8,1c1.2,0,1.8-1,1.8-3.1V25.9z"/>
	<path d="M296.3,23.4l-1.2-0.1c-1.2,0-1.9,0.4-2.3,1.1V32h-3.7V20h3.5l0.1,1.5c0.6-1.2,1.5-1.8,2.6-1.8c0.4,0,0.7,0,1,0.1
		L296.3,23.4z"/>
	<path d="M296.8,25.9c0-1.2,0.2-2.3,0.7-3.2c0.5-0.9,1.1-1.7,2-2.2s1.9-0.8,3.1-0.8c1.8,0,3.2,0.6,4.2,1.7c1,1.1,1.5,2.6,1.5,4.5
		v0.1c0,1.9-0.5,3.3-1.6,4.4c-1,1.1-2.4,1.6-4.2,1.6c-1.7,0-3.1-0.5-4.1-1.5s-1.6-2.4-1.7-4.2L296.8,25.9z M300.5,26.1
		c0,1.1,0.2,1.9,0.5,2.4c0.3,0.5,0.9,0.8,1.5,0.8c1.3,0,2-1,2-3.1v-0.4c0-2.1-0.7-3.2-2.1-3.2c-1.2,0-1.9,0.9-2,2.8L300.5,26.1z"/>
	<path d="M313.4,20l0.1,1.4c0.8-1.1,2-1.6,3.4-1.6c1.2,0,2.2,0.4,2.8,1.1c0.6,0.7,0.9,1.9,1,3.4V32H317v-7.6c0-0.6-0.1-1-0.4-1.3
		c-0.2-0.3-0.7-0.4-1.3-0.4c-0.7,0-1.3,0.3-1.6,0.9V32h-3.7V20H313.4z"/>
	<path d="M328.6,32.2c-1.8,0-3.3-0.5-4.5-1.6c-1.1-1.1-1.7-2.5-1.7-4.3V26c0-1.2,0.2-2.3,0.7-3.2s1.1-1.7,2-2.2
		c0.9-0.5,1.9-0.8,3.1-0.8c1.7,0,3,0.5,4,1.6c1,1,1.5,2.5,1.5,4.4v1.5h-7.4c0.1,0.7,0.4,1.2,0.9,1.6c0.5,0.4,1,0.6,1.7,0.6
		c1.2,0,2.1-0.4,2.8-1.2l1.7,2c-0.5,0.6-1.1,1.2-2,1.5C330.5,32,329.6,32.2,328.6,32.2z M328.2,22.7c-1.1,0-1.7,0.7-1.9,2.2h3.8
		v-0.3c0-0.6-0.1-1.1-0.5-1.4C329.2,22.8,328.7,22.7,328.2,22.7z"/>
</g>
<g>
	<path d="M29.2,18.2l0.1,1.4c0.8-1.1,2-1.6,3.4-1.6c1.5,0,2.5,0.6,3.1,1.8c0.8-1.2,2-1.8,3.5-1.8c2.4,0,3.7,1.5,3.7,4.4v7.8h-3.7
		v-7.6c0-0.6-0.1-1.1-0.3-1.3c-0.2-0.3-0.6-0.4-1.1-0.4c-0.7,0-1.3,0.3-1.7,1l0,0.2v8.2h-3.7v-7.5c0-0.6-0.1-1.1-0.3-1.4
		c-0.2-0.3-0.6-0.4-1.1-0.4c-0.7,0-1.3,0.3-1.6,1v8.3h-3.7v-12H29.2z"/>
	<path d="M44.7,24.1c0-1.2,0.2-2.3,0.7-3.2c0.5-0.9,1.1-1.7,2-2.2s1.9-0.8,3.1-0.8c1.8,0,3.2,0.6,4.2,1.7c1,1.1,1.5,2.6,1.5,4.5v0.1
		c0,1.9-0.5,3.3-1.6,4.4s-2.4,1.6-4.2,1.6c-1.7,0-3.1-0.5-4.1-1.5s-1.6-2.4-1.7-4.2L44.7,24.1z M48.5,24.4c0,1.1,0.2,1.9,0.5,2.4
		c0.3,0.5,0.9,0.8,1.5,0.8c1.3,0,2-1,2-3.1v-0.4c0-2.1-0.7-3.2-2.1-3.2c-1.2,0-1.9,0.9-2,2.8L48.5,24.4z"/>
	<path d="M65.2,21.6L64,21.5c-1.2,0-1.9,0.4-2.3,1.1v7.6H58v-12h3.5l0.1,1.5c0.6-1.2,1.5-1.8,2.6-1.8c0.4,0,0.7,0,1,0.1L65.2,21.6z"
		/>
	<path d="M72.3,30.5c-1.8,0-3.3-0.5-4.5-1.6s-1.7-2.5-1.7-4.3v-0.3c0-1.2,0.2-2.3,0.7-3.2s1.1-1.7,2-2.2s1.9-0.8,3.1-0.8
		c1.7,0,3,0.5,4,1.6c1,1,1.5,2.5,1.5,4.4v1.5H70c0.1,0.7,0.4,1.2,0.9,1.6c0.5,0.4,1,0.6,1.7,0.6c1.2,0,2.1-0.4,2.8-1.2l1.7,2
		c-0.5,0.6-1.1,1.2-2,1.5C74.2,30.3,73.3,30.5,72.3,30.5z M71.9,20.9c-1.1,0-1.7,0.7-1.9,2.2h3.8v-0.3c0-0.6-0.1-1.1-0.5-1.4
		S72.5,20.9,71.9,20.9z"/>
	<path d="M95.7,24.3c0,2-0.4,3.5-1.2,4.5c-0.8,1.1-2,1.6-3.4,1.6c-1.2,0-2.2-0.5-2.9-1.5l-0.2,1.2h-3.3v-17h3.7v6
		C89,18.4,89.9,18,91,18c1.5,0,2.6,0.5,3.5,1.6c0.8,1.1,1.2,2.6,1.2,4.5V24.3z M91.9,24.1c0-1.1-0.2-2-0.5-2.5
		c-0.3-0.5-0.8-0.7-1.4-0.7c-0.8,0-1.4,0.3-1.7,1v4.8c0.3,0.6,0.9,1,1.8,1c0.9,0,1.4-0.4,1.7-1.3C91.9,25.9,91.9,25.1,91.9,24.1z"/>
	<path d="M103.1,30.5c-1.8,0-3.3-0.5-4.5-1.6s-1.7-2.5-1.7-4.3v-0.3c0-1.2,0.2-2.3,0.7-3.2s1.1-1.7,2-2.2s1.9-0.8,3.1-0.8
		c1.7,0,3,0.5,4,1.6c1,1,1.5,2.5,1.5,4.4v1.5h-7.4c0.1,0.7,0.4,1.2,0.9,1.6c0.5,0.4,1,0.6,1.7,0.6c1.2,0,2.1-0.4,2.8-1.2l1.7,2
		c-0.5,0.6-1.1,1.2-2,1.5C105,30.3,104.1,30.5,103.1,30.5z M102.7,20.9c-1.1,0-1.7,0.7-1.9,2.2h3.8v-0.3c0-0.6-0.1-1.1-0.5-1.4
		S103.3,20.9,102.7,20.9z"/>
	<path d="M109.2,24.1c0-1.9,0.4-3.4,1.2-4.5c0.8-1.1,2-1.6,3.4-1.6c1.1,0,2,0.4,2.7,1.3v-6.1h3.7v17h-3.4l-0.2-1.3
		c-0.8,1-1.7,1.5-2.9,1.5c-1.4,0-2.6-0.5-3.4-1.6C109.6,27.7,109.2,26.2,109.2,24.1z M112.9,24.4c0,2.1,0.6,3.2,1.9,3.2
		c0.8,0,1.4-0.3,1.8-1V22c-0.3-0.7-0.9-1.1-1.8-1.1c-1.2,0-1.8,0.9-1.9,2.8L112.9,24.4z"/>
	<path d="M128.7,26.9c0-0.3-0.2-0.6-0.5-0.8c-0.3-0.2-1-0.4-1.9-0.6c-0.9-0.2-1.7-0.5-2.3-0.8s-1.1-0.7-1.4-1.2
		c-0.3-0.5-0.5-1-0.5-1.6c0-1.1,0.5-2,1.4-2.7s2.1-1.1,3.6-1.1c1.6,0,2.8,0.4,3.8,1.1c1,0.7,1.4,1.7,1.4,2.8h-3.7
		c0-1-0.5-1.4-1.5-1.4c-0.4,0-0.7,0.1-1,0.3c-0.3,0.2-0.4,0.5-0.4,0.8c0,0.3,0.2,0.6,0.5,0.8c0.3,0.2,0.8,0.4,1.6,0.5
		c0.7,0.1,1.3,0.3,1.9,0.5c1.8,0.6,2.7,1.7,2.7,3.3c0,1.1-0.5,2-1.5,2.7s-2.2,1-3.8,1c-1,0-1.9-0.2-2.7-0.6
		c-0.8-0.4-1.4-0.9-1.9-1.5c-0.5-0.6-0.7-1.3-0.7-2h3.5c0,0.6,0.2,1,0.6,1.2c0.4,0.3,0.8,0.4,1.4,0.4c0.5,0,0.9-0.1,1.1-0.3
		C128.6,27.5,128.7,27.2,128.7,26.9z"/>
</g>
<g>
	<path d="M212.2,109v-9.4h-1.7V97h1.7v-1c0-1.4,0.4-2.4,1.2-3.2s1.9-1.1,3.4-1.1c0.5,0,1.1,0.1,1.7,0.2l0,2.7
		c-0.2-0.1-0.5-0.1-0.9-0.1c-1.1,0-1.7,0.5-1.7,1.5V97h2.3v2.6h-2.3v9.4H212.2z"/>
	<path d="M226.3,109c-0.1-0.2-0.3-0.6-0.4-1.1c-0.7,0.9-1.6,1.3-2.9,1.3c-1.1,0-2.1-0.3-2.9-1c-0.8-0.7-1.2-1.5-1.2-2.6
		c0-1.3,0.5-2.3,1.4-2.9c1-0.7,2.4-1,4.2-1h1.2V101c0-1.1-0.5-1.7-1.4-1.7c-0.9,0-1.3,0.4-1.3,1.3h-3.7c0-1.2,0.5-2.1,1.5-2.8
		c1-0.7,2.2-1.1,3.8-1.1s2.7,0.4,3.6,1.1c0.9,0.7,1.3,1.8,1.4,3.1v5.3c0,1.1,0.2,1.9,0.5,2.5v0.2H226.3z M224,106.5
		c0.5,0,0.9-0.1,1.2-0.3s0.5-0.4,0.7-0.7v-1.9h-1.1c-1.3,0-1.9,0.6-1.9,1.7c0,0.3,0.1,0.6,0.3,0.8
		C223.3,106.4,223.6,106.5,224,106.5z"/>
	<path d="M237.9,105.6c0-0.3-0.2-0.6-0.5-0.8c-0.3-0.2-1-0.4-1.9-0.6c-0.9-0.2-1.7-0.5-2.3-0.8s-1.1-0.7-1.4-1.2
		c-0.3-0.5-0.5-1-0.5-1.6c0-1.1,0.5-2,1.4-2.7s2.1-1.1,3.6-1.1c1.6,0,2.8,0.4,3.8,1.1c1,0.7,1.4,1.7,1.4,2.8h-3.7
		c0-1-0.5-1.4-1.5-1.4c-0.4,0-0.7,0.1-1,0.3c-0.3,0.2-0.4,0.5-0.4,0.8c0,0.3,0.2,0.6,0.5,0.8c0.3,0.2,0.8,0.4,1.6,0.5
		c0.7,0.1,1.3,0.3,1.9,0.5c1.8,0.6,2.7,1.7,2.7,3.3c0,1.1-0.5,2-1.5,2.7s-2.2,1-3.8,1c-1,0-1.9-0.2-2.7-0.6
		c-0.8-0.4-1.4-0.9-1.9-1.5c-0.5-0.6-0.7-1.3-0.7-2h3.5c0,0.6,0.2,1,0.6,1.2c0.4,0.3,0.8,0.4,1.4,0.4c0.5,0,0.9-0.1,1.1-0.3
		C237.8,106.2,237.9,105.9,237.9,105.6z"/>
	<path d="M247.6,94v3h2v2.6h-2v5.5c0,0.5,0.1,0.8,0.2,0.9c0.2,0.2,0.5,0.3,1,0.3c0.4,0,0.7,0,0.9-0.1v2.7c-0.7,0.2-1.4,0.3-2.1,0.3
		c-1.3,0-2.2-0.3-2.8-0.9c-0.6-0.6-0.9-1.5-0.9-2.8v-5.9h-1.5V97h1.5v-3H247.6z"/>
	<path d="M256.8,109.2c-1.8,0-3.3-0.5-4.5-1.6s-1.7-2.5-1.7-4.3V103c0-1.2,0.2-2.3,0.7-3.2s1.1-1.7,2-2.2s1.9-0.8,3.1-0.8
		c1.7,0,3,0.5,4,1.6c1,1,1.5,2.5,1.5,4.4v1.5h-7.4c0.1,0.7,0.4,1.2,0.9,1.6c0.5,0.4,1,0.6,1.7,0.6c1.2,0,2.1-0.4,2.8-1.2l1.7,2
		c-0.5,0.6-1.1,1.2-2,1.5C258.7,109,257.8,109.2,256.8,109.2z M256.4,99.7c-1.1,0-1.7,0.7-1.9,2.2h3.8v-0.3c0-0.6-0.1-1.1-0.5-1.4
		S257,99.7,256.4,99.7z"/>
	<path d="M270.6,100.4l-1.2-0.1c-1.2,0-1.9,0.4-2.3,1.1v7.6h-3.7V97h3.5l0.1,1.5c0.6-1.2,1.5-1.8,2.6-1.8c0.4,0,0.7,0,1,0.1
		L270.6,100.4z"/>
	<path d="M282,94v3h2v2.6h-2v5.5c0,0.5,0.1,0.8,0.2,0.9c0.2,0.2,0.5,0.3,1,0.3c0.4,0,0.7,0,0.9-0.1v2.7c-0.7,0.2-1.4,0.3-2.1,0.3
		c-1.3,0-2.2-0.3-2.8-0.9c-0.6-0.6-0.9-1.5-0.9-2.8v-5.9h-1.5V97h1.5v-3H282z"/>
	<path d="M292.5,107.7c-0.8,1-1.9,1.5-3.2,1.5c-1.3,0-2.3-0.4-3-1.1c-0.7-0.8-1-1.9-1-3.3V97h3.7v7.8c0,1,0.5,1.5,1.5,1.5
		c0.9,0,1.5-0.3,1.8-0.9V97h3.8v12h-3.5L292.5,107.7z"/>
	<path d="M305.4,100.4l-1.2-0.1c-1.2,0-1.9,0.4-2.3,1.1v7.6h-3.7V97h3.5l0.1,1.5c0.6-1.2,1.5-1.8,2.6-1.8c0.4,0,0.7,0,1,0.1
		L305.4,100.4z"/>
	<path d="M310.2,97l0.1,1.4c0.8-1.1,2-1.6,3.4-1.6c1.2,0,2.2,0.4,2.8,1.1s0.9,1.9,1,3.4v7.7h-3.7v-7.6c0-0.6-0.1-1-0.4-1.3
		c-0.2-0.3-0.7-0.4-1.3-0.4c-0.7,0-1.3,0.3-1.6,0.9v8.5h-3.7V97H310.2z"/>
	<path d="M325.8,105.6c0-0.3-0.2-0.6-0.5-0.8c-0.3-0.2-1-0.4-1.9-0.6c-0.9-0.2-1.7-0.5-2.3-0.8s-1.1-0.7-1.4-1.2
		c-0.3-0.5-0.5-1-0.5-1.6c0-1.1,0.5-2,1.4-2.7s2.1-1.1,3.6-1.1c1.6,0,2.8,0.4,3.8,1.1c1,0.7,1.4,1.7,1.4,2.8h-3.7
		c0-1-0.5-1.4-1.5-1.4c-0.4,0-0.7,0.1-1,0.3c-0.3,0.2-0.4,0.5-0.4,0.8c0,0.3,0.2,0.6,0.5,0.8c0.3,0.2,0.8,0.4,1.6,0.5
		c0.7,0.1,1.3,0.3,1.9,0.5c1.8,0.6,2.7,1.7,2.7,3.3c0,1.1-0.5,2-1.5,2.7s-2.2,1-3.8,1c-1,0-1.9-0.2-2.7-0.6
		c-0.8-0.4-1.4-0.9-1.9-1.5c-0.5-0.6-0.7-1.3-0.7-2h3.5c0,0.6,0.2,1,0.6,1.2c0.4,0.3,0.8,0.4,1.4,0.4c0.5,0,0.9-0.1,1.1-0.3
		C325.7,106.2,325.8,105.9,325.8,105.6z"/>
</g>
<g>
	<path d="M31.4,109v-9.4h-1.7V97h1.7v-1c0-1.4,0.4-2.4,1.2-3.2c0.8-0.8,1.9-1.1,3.4-1.1c0.5,0,1.1,0.1,1.7,0.2l0,2.7
		c-0.2-0.1-0.5-0.1-0.9-0.1c-1.1,0-1.7,0.5-1.7,1.5V97h2.3v2.6h-2.3v9.4H31.4z"/>
	<path d="M44.6,109.2c-1.8,0-3.3-0.5-4.5-1.6s-1.7-2.5-1.7-4.3V103c0-1.2,0.2-2.3,0.7-3.2s1.1-1.7,2-2.2s1.9-0.8,3.1-0.8
		c1.7,0,3,0.5,4,1.6c1,1,1.5,2.5,1.5,4.4v1.5h-7.4c0.1,0.7,0.4,1.2,0.9,1.6c0.5,0.4,1,0.6,1.7,0.6c1.2,0,2.1-0.4,2.8-1.2l1.7,2
		c-0.5,0.6-1.1,1.2-2,1.5C46.5,109,45.5,109.2,44.6,109.2z M44.1,99.7c-1.1,0-1.7,0.7-1.9,2.2H46v-0.3c0-0.6-0.1-1.1-0.5-1.4
		S44.7,99.7,44.1,99.7z"/>
	<path d="M61.5,104.1l1.2-7.1h3.6l-2.8,12h-3.2l-2-7.1l-2,7.1h-3.2l-2.8-12h3.6l1.2,7.2L57,97h2.6L61.5,104.1z"/>
	<path d="M73.4,109.2c-1.8,0-3.3-0.5-4.5-1.6s-1.7-2.5-1.7-4.3V103c0-1.2,0.2-2.3,0.7-3.2s1.1-1.7,2-2.2s1.9-0.8,3.1-0.8
		c1.7,0,3,0.5,4,1.6c1,1,1.5,2.5,1.5,4.4v1.5H71c0.1,0.7,0.4,1.2,0.9,1.6c0.5,0.4,1,0.6,1.7,0.6c1.2,0,2.1-0.4,2.8-1.2l1.7,2
		c-0.5,0.6-1.1,1.2-2,1.5C75.3,109,74.4,109.2,73.4,109.2z M73,99.7c-1.1,0-1.7,0.7-1.9,2.2h3.8v-0.3c0-0.6-0.1-1.1-0.5-1.4
		S73.5,99.7,73,99.7z"/>
	<path d="M87.2,100.4l-1.2-0.1c-1.2,0-1.9,0.4-2.3,1.1v7.6H80V97h3.5l0.1,1.5c0.6-1.2,1.5-1.8,2.6-1.8c0.4,0,0.7,0,1,0.1L87.2,100.4
		z"/>
	<path d="M100.4,105.6c0-0.3-0.2-0.6-0.5-0.8c-0.3-0.2-1-0.4-1.9-0.6c-0.9-0.2-1.7-0.5-2.3-0.8s-1.1-0.7-1.4-1.2
		c-0.3-0.5-0.5-1-0.5-1.6c0-1.1,0.5-2,1.4-2.7s2.1-1.1,3.6-1.1c1.6,0,2.8,0.4,3.8,1.1c1,0.7,1.4,1.7,1.4,2.8h-3.7
		c0-1-0.5-1.4-1.5-1.4c-0.4,0-0.7,0.1-1,0.3c-0.3,0.2-0.4,0.5-0.4,0.8c0,0.3,0.2,0.6,0.5,0.8c0.3,0.2,0.8,0.4,1.6,0.5
		c0.7,0.1,1.3,0.3,1.9,0.5c1.8,0.6,2.7,1.7,2.7,3.3c0,1.1-0.5,2-1.5,2.7s-2.2,1-3.8,1c-1,0-1.9-0.2-2.7-0.6
		c-0.8-0.4-1.4-0.9-1.9-1.5c-0.5-0.6-0.7-1.3-0.7-2H97c0,0.6,0.2,1,0.6,1.2c0.4,0.3,0.8,0.4,1.4,0.4c0.5,0,0.9-0.1,1.1-0.3
		C100.3,106.2,100.4,105.9,100.4,105.6z"/>
	<path d="M110.1,94v3h2v2.6h-2v5.5c0,0.5,0.1,0.8,0.2,0.9c0.2,0.2,0.5,0.3,1,0.3c0.4,0,0.7,0,0.9-0.1v2.7c-0.7,0.2-1.4,0.3-2.1,0.3
		c-1.3,0-2.2-0.3-2.8-0.9c-0.6-0.6-0.9-1.5-0.9-2.8v-5.9h-1.5V97h1.5v-3H110.1z"/>
	<path d="M120.3,109c-0.1-0.2-0.3-0.6-0.4-1.1c-0.7,0.9-1.6,1.3-2.9,1.3c-1.1,0-2.1-0.3-2.9-1c-0.8-0.7-1.2-1.5-1.2-2.6
		c0-1.3,0.5-2.3,1.4-2.9c1-0.7,2.4-1,4.2-1h1.2V101c0-1.1-0.5-1.7-1.4-1.7c-0.9,0-1.3,0.4-1.3,1.3h-3.7c0-1.2,0.5-2.1,1.5-2.8
		c1-0.7,2.2-1.1,3.8-1.1c1.5,0,2.7,0.4,3.6,1.1s1.3,1.8,1.4,3.1v5.3c0,1.1,0.2,1.9,0.5,2.5v0.2H120.3z M118,106.5
		c0.5,0,0.9-0.1,1.2-0.3c0.3-0.2,0.5-0.4,0.7-0.7v-1.9h-1.1c-1.3,0-1.9,0.6-1.9,1.7c0,0.3,0.1,0.6,0.3,0.8S117.6,106.5,118,106.5z"
		/>
	<path d="M126.4,109v-9.4h-1.7V97h1.7v-1c0-1.4,0.4-2.4,1.2-3.2c0.8-0.8,1.9-1.1,3.4-1.1c0.5,0,1.1,0.1,1.7,0.2l0,2.7
		c-0.2-0.1-0.5-0.1-0.9-0.1c-1.1,0-1.7,0.5-1.7,1.5V97h2.3v2.6h-2.3v9.4H126.4z"/>
	<path d="M134.6,109v-9.4h-1.7V97h1.7v-1c0-1.4,0.4-2.4,1.2-3.2s1.9-1.1,3.4-1.1c0.5,0,1.1,0.1,1.7,0.2l0,2.7
		c-0.2-0.1-0.5-0.1-0.9-0.1c-1.1,0-1.7,0.5-1.7,1.5V97h2.3v2.6h-2.3v9.4H134.6z"/>
</g>
<line class="st4" x1="150.1" y1="30.1" x2="200" y2="100"/>
<line class="st4" x1="198.2" y1="28.9" x2="151.8" y2="101.2"/>
</svg>
