<?xml version="1.0" encoding="utf-8"?>
<!-- Generator: Adobe Illustrator 24.0.3, SVG Export Plug-In . SVG Version: 6.00 Build 0)  -->
<svg version="1.1" id="Layer_1" xmlns="http://www.w3.org/2000/svg" xmlns:xlink="http://www.w3.org/1999/xlink" x="0px" y="0px"
	 viewBox="0 0 197 65" style="enable-background:new 0 0 197 65;" xml:space="preserve">
<style type="text/css">
	.st0{fill:#87C540;}
</style>
<g>
	<path class="st0" d="M36.4,34.4c-0.3,3.5-1.5,6.2-3.8,8.2s-5.4,3-9.1,3c-4.1,0-7.4-1.4-9.8-4.2c-2.4-2.8-3.6-6.6-3.6-11.5v-2
		c0-3.1,0.5-5.8,1.6-8.2c1.1-2.4,2.7-4.2,4.7-5.4c2-1.3,4.4-1.9,7.1-1.9c3.7,0,6.7,1,9,3c2.3,2,3.6,4.8,3.9,8.4h-6.6
		c-0.2-2.1-0.7-3.6-1.7-4.5c-1-0.9-2.5-1.4-4.6-1.4c-2.2,0-3.9,0.8-5,2.4c-1.1,1.6-1.7,4-1.7,7.4v2.4c0,3.5,0.5,6,1.6,7.6
		c1.1,1.6,2.7,2.4,5,2.4c2.1,0,3.6-0.5,4.6-1.4c1-0.9,1.6-2.4,1.7-4.4H36.4z"/>
	<path class="st0" d="M39.3,32.9c0-2.4,0.5-4.5,1.4-6.4s2.2-3.3,4-4.3c1.7-1,3.7-1.5,6-1.5c3.2,0,5.9,1,7.9,3c2,2,3.2,4.7,3.4,8.1
		l0,1.6c0,3.7-1,6.6-3.1,8.8c-2.1,2.2-4.8,3.3-8.3,3.3s-6.2-1.1-8.3-3.3s-3.1-5.2-3.1-9V32.9z M45.7,33.4c0,2.3,0.4,4,1.3,5.2
		c0.9,1.2,2.1,1.8,3.7,1.8c1.6,0,2.8-0.6,3.6-1.8s1.3-3.1,1.3-5.7c0-2.2-0.4-4-1.3-5.2c-0.9-1.2-2.1-1.8-3.7-1.8
		c-1.6,0-2.8,0.6-3.6,1.8C46.2,28.9,45.7,30.8,45.7,33.4z"/>
	<path class="st0" d="M73,33.8v11.4h-6.6V12.9H79c2.4,0,4.6,0.4,6.4,1.3c1.8,0.9,3.3,2.1,4.2,3.8c1,1.6,1.5,3.5,1.5,5.6
		c0,3.2-1.1,5.7-3.2,7.5c-2.2,1.8-5.2,2.7-9,2.7H73z M73,28.4H79c1.8,0,3.1-0.4,4-1.2c0.9-0.8,1.4-2,1.4-3.5c0-1.6-0.5-2.9-1.4-3.8
		c-0.9-1-2.2-1.5-3.9-1.5H73V28.4z"/>
	<path class="st0" d="M108.7,27.2c-0.9-0.1-1.6-0.2-2.3-0.2c-2.4,0-4,0.8-4.8,2.5v15.7h-6.4v-24h6l0.2,2.9c1.3-2.2,3.1-3.3,5.3-3.3
		c0.7,0,1.4,0.1,2,0.3L108.7,27.2z"/>
	<path class="st0" d="M110,32.9c0-2.4,0.5-4.5,1.4-6.4s2.2-3.3,4-4.3c1.7-1,3.7-1.5,6-1.5c3.2,0,5.9,1,7.9,3c2,2,3.2,4.7,3.4,8.1
		l0,1.6c0,3.7-1,6.6-3.1,8.8c-2.1,2.2-4.8,3.3-8.3,3.3s-6.2-1.1-8.3-3.3s-3.1-5.2-3.1-9V32.9z M116.4,33.4c0,2.3,0.4,4,1.3,5.2
		c0.9,1.2,2.1,1.8,3.7,1.8c1.6,0,2.8-0.6,3.6-1.8s1.3-3.1,1.3-5.7c0-2.2-0.4-4-1.3-5.2c-0.9-1.2-2.1-1.8-3.7-1.8
		c-1.6,0-2.8,0.6-3.6,1.8C116.8,28.9,116.4,30.8,116.4,33.4z"/>
	<path class="st0" d="M142.5,21.2l0.2,2.8c1.7-2.1,4-3.2,6.9-3.2c2.5,0,4.4,0.7,5.7,2.2c1.2,1.5,1.9,3.7,1.9,6.7v15.5h-6.4V29.8
		c0-1.4-0.3-2.3-0.9-3c-0.6-0.6-1.6-0.9-2.9-0.9c-1.8,0-3.2,0.8-4.1,2.3v16.9h-6.4v-24H142.5z"/>
	<path class="st0" d="M173,45.6c-3.5,0-6.4-1.1-8.6-3.2c-2.2-2.2-3.3-5-3.3-8.6v-0.6c0-2.4,0.5-4.6,1.4-6.5s2.2-3.4,4-4.4
		c1.7-1,3.6-1.5,5.8-1.5c3.3,0,5.9,1,7.7,3.1c1.9,2.1,2.8,5,2.8,8.8v2.6h-15.3c0.2,1.6,0.8,2.8,1.9,3.8c1,0.9,2.4,1.4,4,1.4
		c2.5,0,4.4-0.9,5.8-2.7l3.1,3.5c-1,1.4-2.3,2.4-3.9,3.2S175,45.6,173,45.6z M172.3,25.9c-1.3,0-2.3,0.4-3.1,1.3
		c-0.8,0.9-1.3,2.1-1.5,3.7h8.9v-0.5c0-1.4-0.4-2.5-1.2-3.3C174.7,26.3,173.7,25.9,172.3,25.9z"/>
</g>
</svg>
